<svg width="90" height="60" fill="none" xmlns="http://www.w3.org/2000/svg"><path d="M10.51 10.76h.25V.25h78.675v48.99h-10.51v10.51H.25V10.76h10.26zm63.344 12.253l.316.086v-7.584h-7.584l.086.316a10.27 10.27 0 007.182 7.182zm-12.076-7.291l-.036-.207h-44.31l-.036.207c-1.082 6.2-5.984 11.102-12.184 12.184l-.207.036v14.625l.207.037c6.2 1.081 11.102 5.984 12.184 12.184l.037.207h44.31l.035-.207c1.082-6.2 5.985-11.102 12.185-12.184l.207-.036V27.943l-.207-.037c-6.2-1.082-11.103-5.984-12.185-12.184zm-49.275.109l.086-.316H5.005v7.584l.316-.086a10.27 10.27 0 007.182-7.182zM5.32 47.497l-.316-.086v7.584h7.584l-.086-.316a10.27 10.27 0 00-7.182-7.182zm61.351 7.182l-.086.316h7.584v-7.584l-.316.086a10.27 10.27 0 00-7.182 7.182zM84.43 44.483h.25V5.005H15.515v5.755h63.41v33.723h5.505z" fill="#fff" stroke="#000" stroke-width=".5"/><path d="M50.611 35.253c0 6.079-4.947 11.023-11.024 11.023-6.079 0-11.023-4.942-11.023-11.023 0-6.08 4.944-11.024 11.023-11.024 6.08 0 11.024 4.947 11.024 11.024zm-4.755.002a6.276 6.276 0 00-6.269-6.269 6.275 6.275 0 00-6.268 6.27 6.275 6.275 0 006.268 6.268 6.275 6.275 0 006.27-6.269zm11.598 2.377v-4.755h8.1v4.755h-8.1zm-43.833 0v-4.755h8.1v4.755h-8.1z" fill="#fff" stroke="#000" stroke-width=".5"/></svg>