<svg width="67" height="57" fill="none" xmlns="http://www.w3.org/2000/svg"><path d="M36.185 28.5c0-6.997-1.155-15.686-4.543-21.771C33.345 4.7 34.288 3.407 34.36 3.31A2.085 2.085 0 0030.986.86c-6.325 8.704-18.54 19.987-29.84 25.777-.003.002-.008.003-.01.006a2.086 2.086 0 000 3.713c.002.002.007.003.01.006 12.253 6.28 24.094 17.892 29.838 25.778a2.085 2.085 0 003.374-2.451c-.07-.098-1.013-1.39-2.716-3.418 3.39-6.089 4.544-14.78 4.544-21.772zm-4.17 0c0 2.127-.106 4.2-.308 6.182a6.266 6.266 0 01-5.292-6.182c0-3.123 2.3-5.717 5.293-6.183a61.47 61.47 0 01.307 6.183zm-25.593 0c8.194-4.785 15.904-11.448 22.264-18.403 1.045 2.241 1.87 5 2.438 8.091-5.018.75-8.88 5.087-8.88 10.312 0 5.224 3.862 9.562 8.881 10.311-.567 3.093-1.393 5.85-2.437 8.092C22.347 39.968 14.63 33.294 6.422 28.5zm40.847 0c0-1.151.934-2.086 2.085-2.086h14.771a2.086 2.086 0 010 4.171H49.354a2.085 2.085 0 01-2.085-2.085zm.118-10.43a2.085 2.085 0 011.274-2.66l14.772-6.95a2.085 2.085 0 111.385 3.934l-14.772 6.951a2.086 2.086 0 01-2.66-1.275zM66.09 47.265a2.085 2.085 0 01-2.66 1.275l-14.77-6.951a2.086 2.086 0 011.384-3.934l14.771 6.95a2.084 2.084 0 011.275 2.66z" fill="#000"/></svg>